<?xml version="1.0" encoding="UTF-8" standalone="no"?>
<!-- Created with Inkscape (http://www.inkscape.org/) -->

<svg
   width="52mm"
   height="37mm"
   viewBox="0 0 52 37"
   version="1.1"
   id="svg11122"
   xmlns="http://www.w3.org/2000/svg"
   xmlns:svg="http://www.w3.org/2000/svg">
  <defs
     id="defs11119" />
  <g
     id="layer1">
    <path
       fill="#2ca9e5"
       opacity="1"
       stroke="none"
       d="m 28.500641,11.663558 c 1.96493,-0.373483 3.6819,-0.05045 5.31553,0.91921 0.30492,0.180988 0.91733,0.124561 1.24933,-0.06495 2.74898,-1.569074 5.91034,-1.367715 8.11828,0.581359 2.2487,1.985055 2.86834,5.025604 1.62312,7.964662 -1.46427,3.456096 -6.32429,4.846947 -9.57267,2.737228 -0.25428,-0.165142 -0.49562,-0.350181 -0.73088,-0.517387 -3.37537,2.167435 -5.80491,2.149075 -8.643072,0.149794 -1.695016,0.48836 -3.156982,1.102788 -4.672251,1.293323 -1.605021,0.201826 -3.129617,-0.369777 -4.357578,-1.510684 -2.334262,1.842638 -5.824707,2.337427 -8.5388257,0.192908 -2.227837,-1.760289 -3.192341,-4.752811 -2.290676,-7.32019 1.026522,-2.922892 3.519114,-4.783524 6.5208187,-4.573204 1.218491,0.08538 2.394659,0.726281 3.599911,1.081024 0.328662,0.09673 0.801542,0.231442 1.024515,0.07936 2.919344,-1.991167 5.697193,-1.567472 8.345905,0.341881 0.992918,-0.453933 1.946273,-0.889778 3.008543,-1.354336 M 6.6927723,18.449915 c 0.253318,2.456248 1.460633,4.23777 3.8226157,5.048271 1.979018,0.679079 3.858179,0.407172 5.512342,-0.989608 -2.148498,-2.943402 -2.184339,-5.385649 -0.129074,-8.781034 -1.119176,-0.944086 -2.432789,-1.340755 -3.869347,-1.271699 -2.7875907,0.134001 -5.2942057,2.357578 -5.3365367,5.99407 M 44.399201,17.568881 c -0.30362,-2.404628 -1.57374,-4.111921 -3.87427,-4.839523 -1.90763,-0.60334 -3.77146,-0.358804 -5.3829,0.99754 2.13465,3.288253 2.14948,5.5156 0.0811,8.815314 1.86139,1.498446 3.94489,1.723636 6.01778,0.719902 2.19955,-1.065059 3.26635,-2.975909 3.1583,-5.693233 m -16.25949,5.936266 c 1.99754,0.711697 3.80899,0.489588 5.53364,-1.026364 -1.67798,-1.653378 -3.23273,-3.210914 -4.81645,-4.738423 -1.4877,-1.434907 -2.933041,-2.927429 -4.530124,-4.231603 -1.813042,-1.480526 -4.993329,-1.743596 -6.791865,0.51534 2.754401,2.676297 5.512702,5.396222 8.326181,8.057819 0.591132,0.559221 1.385108,0.904026 2.278618,1.423231 m 0.0259,-7.77716 c 2.03933,2.028619 4.07866,4.057243 6.12161,6.08946 2.18381,-2.415157 1.83714,-5.968979 -0.60894,-8.001098 -2.19114,-1.820315 -5.73352,-1.741504 -7.295785,0.298368 0.538735,0.483319 1.094765,0.982157 1.783115,1.61327 m -12.39042,4.328036 c 0.735212,2.038858 2.193119,3.277052 4.307613,3.602154 1.651226,0.253875 3.276029,0.113477 4.462669,-1.134158 -2.672478,-2.711741 -5.255198,-5.332404 -7.836305,-7.951438 -1.243926,1.466781 -1.490334,2.722943 -0.933977,5.483442 z"
       id="path76"
       style="stroke-width:0.264583" />
    <path
       fill="#fcfeff"
       opacity="1"
       stroke="none"
       d="m 6.6758623,18.344877 c 0.05924,-3.531452 2.565856,-5.755029 5.3534467,-5.88903 1.436558,-0.06906 2.750171,0.327613 3.869347,1.271699 -2.055265,3.395385 -2.019424,5.837632 0.129074,8.781034 -1.654163,1.39678 -3.533324,1.668687 -5.512342,0.989608 C 8.1534053,22.687687 6.9460903,20.906165 6.6758623,18.344877 Z"
       id="path110"
       style="stroke-width:0.264583" />
    <path
       fill="#fcfeff"
       opacity="1"
       stroke="none"
       d="m 44.407511,17.682276 c 0.0997,2.603931 -0.96706,4.514781 -3.16661,5.57984 -2.07289,1.003734 -4.15639,0.778544 -6.01778,-0.719902 2.06839,-3.299714 2.05356,-5.527061 -0.0811,-8.815314 1.61144,-1.356344 3.47528,-1.60088 5.3829,-0.99754 2.30053,0.727602 3.57065,2.434895 3.88259,4.952916 z"
       id="path112"
       style="stroke-width:0.264583" />
    <path
       fill="#fcfeff"
       opacity="1"
       stroke="none"
       d="m 28.043211,23.467351 c -0.79701,-0.481407 -1.590982,-0.826212 -2.182114,-1.385433 -2.813479,-2.661597 -5.57178,-5.381522 -8.326181,-8.057819 1.798536,-2.258936 4.978823,-1.995866 6.791865,-0.51534 1.597083,1.304174 3.04242,2.796696 4.53013,4.231603 1.58371,1.527509 3.13847,3.085045 4.81644,4.738423 -1.72464,1.515952 -3.53609,1.738061 -5.63014,0.988566 z"
       id="path114"
       style="stroke-width:0.264583" />
    <path
       fill="#fafdfe"
       opacity="1"
       stroke="none"
       d="m 28.099451,15.661851 c -0.62219,-0.564975 -1.17822,-1.063813 -1.71695,-1.547132 1.56226,-2.039872 5.10464,-2.118683 7.29578,-0.298368 2.44608,2.032119 2.79275,5.585941 0.60894,8.001098 -2.04294,-2.032217 -4.08227,-4.060841 -6.18777,-6.155598 z"
       id="path116"
       style="stroke-width:0.264583" />
    <path
       fill="#fcfeff"
       opacity="1"
       stroke="none"
       d="m 15.73038,19.955324 c -0.511542,-2.659798 -0.265134,-3.91596 0.978792,-5.382741 2.581108,2.619034 5.163827,5.239697 7.836305,7.951438 -1.18664,1.247635 -2.811443,1.388033 -4.462668,1.134158 -2.114495,-0.325102 -3.572401,-1.563296 -4.352429,-3.702855 z"
       id="path118"
       style="stroke-width:0.264583" />
  </g>
</svg>
