<?xml version="1.0" encoding="UTF-8" standalone="no"?>
<svg
   version="1.1"
   id="Layer_1"
   x="0px"
   y="0px"
   width="149.99997"
   viewBox="0 0 149.99997 32.833327"
   enable-background="new 0 0 624 500"
   xml:space="preserve"
   sodipodi:docname="Logo_MD_mobile.svg"
   inkscape:version="1.1.1 (3bf5ae0d25, 2021-09-20)"
   height="32.833328"
   xmlns:inkscape="http://www.inkscape.org/namespaces/inkscape"
   xmlns:sodipodi="http://sodipodi.sourceforge.net/DTD/sodipodi-0.dtd"
   xmlns="http://www.w3.org/2000/svg"
   xmlns:svg="http://www.w3.org/2000/svg"><defs
   id="defs133" /><sodipodi:namedview
   id="namedview131"
   pagecolor="#ffffff"
   bordercolor="#666666"
   borderopacity="1.0"
   inkscape:pageshadow="2"
   inkscape:pageopacity="0.0"
   inkscape:pagecheckerboard="0"
   showgrid="false"
   inkscape:snap-midpoints="false"
   inkscape:snap-smooth-nodes="false"
   inkscape:object-paths="true"
   inkscape:zoom="11.313709"
   inkscape:cx="31.422057"
   inkscape:cy="26.383921"
   inkscape:window-width="1920"
   inkscape:window-height="991"
   inkscape:window-x="-9"
   inkscape:window-y="-9"
   inkscape:window-maximized="1"
   inkscape:current-layer="Layer_1" />

<path
   fill="#1360a4"
   opacity="1"
   stroke="none"
   d="m 53.470755,16.858895 -3.07349,0.0156 c 0.001,-0.0802 -0.002,-10.1446011 -0.002,-14.6751331 0,-0.140118 -0.0304,-0.325174 0.0337,-0.422345 0.20378,-0.445846 0.7162,-1.67895199 1.2931,-1.69165399 0.57698,-0.01273 1.3773,0.46082 1.70662,0.96552999 0.52443,0.803709 4.40962,7.573801 6.67754,11.5161081 0.25888,-0.359522 4.60845,-7.7811091 6.58386,-11.2168661 0.4524,-0.78673799 0.8458,-1.33541299 2.02201,-1.35000599125 1.17885,-0.0146299987 1.27934,1.21895199125 1.27909,2.20497899125 -0.001,4.848591 -5.9e-4,9.6971801 -5.9e-4,14.6386381 h -3.10045 V 7.3251009 c -0.4529,0.594441 -3.41339,5.6578991 -4.72221,7.9166381 -0.4746,0.818972 -1.02758,1.762675 -2.00795,1.756146 -0.98043,-0.0065 -1.44122,-0.983412 -1.88563,-1.709275 -1.57101,-2.566285 -3.01979,-5.207314 -4.80377,-7.7577651 z"
   id="path74"
   sodipodi:nodetypes="ccsczscssscccszscc"
   style="stroke-width:0.280645" />
<path
   fill="#2ca9e5"
   opacity="1"
   stroke="none"
   d="m 24.229985,9.5548979 c 2.08494,-0.396021 3.90682,-0.05353 5.64017,0.9746851 0.32357,0.191911 0.97334,0.132077 1.32569,-0.06892 2.91679,-1.6637641 6.27125,-1.4502571 8.61401,0.616442 2.38602,2.104847 3.04352,5.328888 1.72227,8.445314 -1.55373,3.664663 -6.71049,5.139447 -10.15726,2.902415 -0.2698,-0.17511 -0.52587,-0.371318 -0.77555,-0.548613 -3.58152,2.298233 -6.15944,2.278766 -9.17085,0.158835 -1.79854,0.517828 -3.34987,1.169339 -4.95765,1.37137 -1.70297,0.214009 -3.32068,-0.392089 -4.62365,-1.601851 -2.4768196,1.953841 -6.1804196,2.47849 -9.0602996,0.204554 C 0.42292545,20.142606 -0.60044455,16.969495 0.35629545,14.247179 1.4454354,11.147894 4.0903354,9.1749809 7.2753154,9.3979909 c 1.29287,0.09053 2.54087,0.7701121 3.8197896,1.1462641 0.34872,0.102568 0.85042,0.245406 1.08703,0.0842 3.0977,-2.1113331 6.04511,-1.6620641 8.85567,0.362514 1.05352,-0.481328 2.06503,-0.943476 3.19218,-1.4360711 M 1.0903854,16.750803 c 0.26879,2.604476 1.5498,4.493512 4.05601,5.352925 2.09988,0.72006 4.09382,0.431743 5.8489896,-1.049333 C 8.7156754,17.933365 8.6776954,15.343736 10.858455,11.743444 9.6709454,10.742388 8.2771054,10.321778 6.7527554,10.395 c -2.9578,0.142091 -5.61746,2.499857 -5.66237,6.355803 M 41.099505,15.816599 c -0.32212,-2.549741 -1.66981,-4.360066 -4.11087,-5.131576 -2.02413,-0.639753 -4.00181,-0.380457 -5.71165,1.05774 2.26501,3.486689 2.28073,5.848451 0.0866,9.347299 1.97511,1.58887 4.18579,1.827651 6.38532,0.763347 2.33381,-1.129333 3.46582,-3.155501 3.35113,-6.03681 m -17.25247,6.294509 c 2.11949,0.754647 4.04155,0.519133 5.87153,-1.088304 -1.78038,-1.753159 -3.43008,-3.404687 -5.11051,-5.024378 -1.57863,-1.521499 -3.11222,-3.104091 -4.80686,-4.486969 -1.92372,-1.5698731 -5.29823,-1.8488191 -7.20657,0.54644 2.92261,2.837804 5.84936,5.721872 8.83466,8.544089 0.62721,0.592971 1.46969,0.958583 2.41775,1.509122 m 0.0272,-8.246497 c 2.16385,2.151043 4.32769,4.30209 6.49545,6.456946 2.31711,-2.560907 1.94934,-6.329193 -0.64611,-8.483948 -2.32496,-1.9301691 -6.08373,-1.8465981 -7.74134,0.316375 0.57162,0.512486 1.16158,1.041426 1.892,1.710627 m -13.14717,4.589223 c 0.78011,2.1619 2.32703,3.474816 4.57072,3.819539 1.75208,0.269193 3.47613,0.120323 4.73524,-1.202604 -2.83569,-2.875388 -5.57616,-5.654204 -8.31496,-8.43129 -1.31989,1.555299 -1.58127,2.887269 -0.991,5.814355 z"
   id="path76"
   style="stroke-width:0.280645" />
<path
   fill="#1160a3"
   opacity="1"
   stroke="none"
   d="m 80.602635,12.819494 c -1.47602,5.6e-4 -2.8281,5.6e-4 -4.3162,5.6e-4 v 4.012695 h -2.87814 c 0,-3.470051 -0.34604,-6.9915891 0.0944,-10.4122091 0.47435,-3.689084 3.67706,-6.02586599 7.60228,-6.20462699 2.33361,-0.106274 4.67577,-0.01672 7.01398,-0.03236 1.1629,-0.0077 1.77978,0.612092 1.78705,1.70295999 0.0326,4.947428 0.0142,9.8952041 0.0142,14.9478681 h -3.00893 v -4.015343 c -2.18456,0 -4.18444,0 -6.30827,5.62e-4 m 3.03978,-3.0938481 h 3.14686 v -6.491925 c -1.84839,0 -3.61532,-0.03659 -5.38015,0.0076 -3.62412,0.09099 -5.03026,2.925914 -5.00855,6.484193 2.30942,0 4.63605,0 7.24184,-1.4e-5 z"
   id="path78"
   sodipodi:nodetypes="ccccssscccccsccscs"
   style="stroke-width:0.280645" />
<path
   fill="#1461a4"
   opacity="1"
   stroke="none"
   d="m 100.07357,0.18487991 c 2.80398,4e-6 5.46831,4e-6 8.25691,4e-6 0,0.99644799 0,1.93883099 0,3.04971999 -3.14461,0 -6.30883,-6.8e-5 -9.473045,2.2e-5 -2.61727,7.3e-5 -2.66129,0.04637 -2.65694,2.659924 0.003,2.05631 0.026,4.1130671 -0.008,6.1687891 -0.0216,1.290839 0.49876,1.859978 1.83777,1.840354 3.409075,-0.04991 6.819385,-0.01659 10.326045,-0.01659 0,0.984545 0,1.896538 0,2.937733 -0.30196,0.03399 -0.65336,0.107044 -1.00504,0.108037 -3.18032,0.0088 -6.3608,0.02084 -9.541045,5.63e-4 -2.94359,-0.0187 -4.62187,-1.692492 -4.6373,-4.60033 -0.0128,-2.4302291 -0.0114,-4.8606351 10e-4,-7.2908721 0.0167,-3.296076 1.60988,-4.85578299 4.9365,-4.85761399 0.60803,-3.35e-4 1.21602,1.01e-4 1.963715,1.84e-4 z"
   id="path80"
   style="stroke-width:0.280645" />
<path
   fill="#1260a3"
   opacity="1"
   stroke="none"
   d="m 117.79766,5.1967769 c 5.6e-4,-1.214158 -0.0172,-2.289014 0.007,-3.362909 0.0223,-0.98956199 0.545,-1.62324599 1.5444,-1.62975099 4.4782,-0.02916 8.95665,-0.01272 13.5261,-0.01272 0,1.01652299 0,1.93144799 0,2.96223199 -3.90512,0 -7.85889,0 -12.02688,0 0,1.344864 -1e-5,2.583271 1e-5,3.82168 3e-5,1.72845 0.0433,3.4583641 -0.0141,5.1848621 -0.0427,1.281573 0.519,1.75527 1.75847,1.739753 2.9446,-0.03685 5.88992,-0.01182 8.83499,-0.01176 0.45891,5e-6 0.91789,2e-6 1.45773,2e-6 0,1.009175 0,1.922006 0,3.0485 -0.43512,0 -0.87921,0 -1.32325,0 -3.03853,-2e-6 -6.07715,0.01176 -9.11557,-0.0033 -2.94072,-0.01462 -4.62618,-1.682217 -4.64545,-4.58968 -0.0154,-2.335633 -0.003,-4.6714421 -0.003,-7.1468991 z"
   id="path82"
   style="stroke-width:0.280645" />
<path
   fill="#105fa3"
   opacity="1"
   stroke="none"
   d="m 149.0622,15.414904 c -0.73991,0.691471 -2.01786,1.396134 -3.02019,1.440216 -3.72457,0.163817 -7.46071,0.06527 -11.29523,0.06527 v -3.031305 c 0.94746,0 1.95133,0 2.9552,0 2.42992,-6e-6 4.85985,0.0047 7.28975,-0.0016 1.75158,-0.0045 1.95498,-0.200525 1.95803,-1.920514 0.007,-3.8686361 0.002,-7.7373001 0.002,-11.69233509 h 3.03915 c 0,4.36736399 0.0369,8.69595999 -0.0382,13.02256909 -0.0118,0.684051 -0.15035,1.426187 -0.89033,2.11766 z"
   id="path84"
   sodipodi:nodetypes="zsccsssccsz"
   style="stroke-width:0.280645" />
<path
   fill="#224088"
   opacity="1"
   stroke="none"
   d="m 77.905225,29.844838 c -3.80683,0.0059 -3.43609,0.289179 -3.44174,-3.31951 -0.003,-1.822081 0.029,-3.644811 -0.0109,-5.465997 -0.0225,-1.02898 0.44673,-1.444253 1.42666,-1.436832 1.44921,0.01101 2.89855,5.65e-4 4.34788,0.0016 3.39471,0.0027 4.09112,1.975479 2.90322,4.915567 0.47349,1.143026 1.3045,1.511905 1.45852,2.506924 0.2691,1.738858 -0.71207,2.743762 -2.47844,2.790719 -1.35485,0.03596 -2.7114,0.0073 -4.20504,0.0074 m 3.84757,-4.101918 -4.67131,-0.06136 c 0.0374,-0.813323 0.001,-1.292281 0.0314,-1.946196 0.6403,0 3.29073,-0.153986 4.19489,-0.162479 0.3281,-0.201058 0.90878,-0.303328 0.94094,-1.018787 0.0318,-0.715463 -0.97641,-0.996808 -1.05253,-1.000106 -1.56942,-0.06798 -3.14323,-0.03439 -4.7257,-0.03439 v 6.348836 l 5.09595,0.04534 c 0.75868,0.0016 1.14551,-0.407322 1.18328,-1.009799 0.0374,-0.602474 -0.19753,-1.144466 -0.99725,-1.16097 z"
   id="path86"
   sodipodi:nodetypes="csssscssccccczcccczcc"
   style="stroke-width:0.280645" />
<path
   fill="#203f87"
   opacity="1"
   stroke="none"
   d="m 72.334895,22.360257 c 0,1.34785 0.008,2.563015 -0.002,3.778007 -0.015,1.757625 0.77458,3.207403 -1.16637,4.860128 l 2.23916,0.394526 c 0.5476,1.24631 -0.35035,1.47797 -1.19323,1.435844 -0.77533,-0.03881 -1.72221,-0.211919 -2.22761,-0.702402 -0.28824,-0.279745 0.13421,-1.697631 0.242,-2.392394 0.13214,-0.851509 0.28106,-1.318738 0.42434,-2.282672 h -6.5246 v 2.286571 h -1.73491 c -10e-4,-0.06075 -0.19976,-4.254505 0.0562,-6.336834 0.25654,-2.082336 2.36662,-3.48015 4.05955,-3.645628 1.69293,-0.165475 2.61257,-0.116088 3.91996,-0.123186 1.80549,-0.0097 1.90145,0.103432 1.90691,1.89426 5.6e-4,0.233671 6e-5,0.467337 1e-5,0.83378 m -1.78978,1.739756 v -2.578175 c -0.62066,0 -3.80905,-0.352963 -5.12701,0.51773 -1.50715,0.995673 -1.11817,3.240529 -1.11313,3.399316 1.75213,0 3.52325,-0.04308 5.29076,0.0182 0.39966,0.01387 0.69145,0.0087 0.91259,-0.0033 0.011,-0.328715 0.031,-0.815537 0.0364,-1.35371 z"
   id="path88"
   sodipodi:nodetypes="csccssscccczzsscccscsccc"
   style="stroke-width:0.280645" />
<path
   fill="#1e3d86"
   opacity="1"
   stroke="none"
   d="m 95.135205,28.360113 c 0.51883,0.457163 0.96231,0.849536 1.51604,1.339461 -1.73082,0.397404 -2.97553,0.04432 -4.17306,-1.096063 -0.99436,-0.946877 -1.83043,-2.350401 -3.62404,-2.101791 v -1.907754 c 1.0883,0 2.10758,-0.01123 3.12675,-1.12e-4 2.26628,0.02465 2.35743,-0.910403 2.34674,-2.986452 h -6.25578 l -0.009,8.243989 h -1.894 c 0,-1.43332 0.0334,-6.771167 0.008,-7.862698 -0.007,-0.286633 -0.008,-2.08389 -0.021,-2.405731 0.33456,0.0057 1.5119,0.0175 1.90319,0.01537 0.49289,-0.0027 4.4454,0.0022 5.21096,0.0059 2.00347,0.0099 3.00716,1.594892 3.04783,2.979249 0.0598,2.052836 -0.29295,2.815304 -1.78142,3.539849 -0.37425,0.182166 -0.78644,0.286496 -1.39389,0.502083 0.69934,0.609225 1.30808,1.139547 1.99228,1.734654 z"
   id="path90"
   sodipodi:nodetypes="ccsccsccccscsssscc"
   style="stroke-width:0.280645" />
<path
   fill="#213f88"
   opacity="1"
   stroke="none"
   d="m 116.31747,24.780769 c -0.92666,1.524848 -1.77727,2.974725 -2.70414,4.374164 -0.22142,0.334275 -0.72183,0.71877 -1.04876,0.681757 -0.32032,-0.03623 -0.76996,-0.543606 -0.84166,-0.907404 -0.59441,-3.015507 -1.12622,-6.280631 -1.66712,-9.297949 1.20492,0.01951 1.26634,0.02358 1.77839,0.02122 0.0631,0.192048 0.96354,4.555423 1.33572,6.561285 0.98339,-1.542532 1.78152,-2.816986 2.60283,-4.07638 0.78416,-1.202493 1.32398,-1.138642 2.10942,0.07494 0.80476,1.243524 1.5824,2.504588 2.56312,4.061566 0.45519,-2.383666 0.84955,-4.449117 1.25543,-6.574777 h 1.84417 c -0.55661,3.172432 -1.08158,6.280014 -1.67529,9.374444 -0.0606,0.319014 -0.5438,0.793421 -0.8102,0.780169 -0.3744,-0.0186 -0.85295,-0.345902 -1.07171,-0.681368 -1.06765,-1.637049 -2.06372,-3.320719 -3.14086,-5.078954 -0.21144,0.260845 -0.34636,0.427316 -0.52934,0.687241 z"
   id="path92"
   sodipodi:nodetypes="cssscccsscccsscccc"
   style="stroke-width:0.280645" />
<path
   fill="#224189"
   opacity="1"
   stroke="none"
   d="m 133.45217,29.367232 c -1.44526,0.57168 -2.85103,0.393058 -4.23224,0.462104 -1.43637,0.07184 -2.87918,0.01601 -4.3831,0.01601 v -1.888192 c 2.08257,0 4.12862,0.01139 6.17444,-0.0054 0.86241,-0.007 1.94513,0.205894 1.92256,-1.176004 -0.0206,-1.277773 -1.02866,-1.086143 -1.85583,-1.09313 -1.12274,-0.0094 -2.24705,0.03126 -3.36815,-0.0134 -1.79523,-0.07156 -2.93912,-1.194122 -2.99215,-2.867726 -0.0548,-1.748284 0.90818,-2.96557 2.73258,-3.077865 2.08653,-0.128434 4.18708,-0.02975 6.37541,-0.02975 v 1.832626 c -1.79446,0 -3.60196,0.0086 -5.40925,-0.0037 -0.87269,-0.006 -1.84012,-0.05776 -1.82442,1.153678 0.016,1.248946 1.03808,1.069287 1.87277,1.07321 1.12254,0.0052 2.24919,-0.04156 3.36653,0.0389 1.35125,0.09717 2.46214,0.667943 2.86548,2.071795 0.39731,1.382923 0.2006,2.935262 -1.24463,3.506944 z"
   id="path94"
   sodipodi:nodetypes="zsccssssssccsssssz"
   style="stroke-width:0.280645" />
<path
   fill="#24438a"
   opacity="1"
   stroke="none"
   d="m 50.433415,20.545489 c 0.007,-0.672949 0.79992,-0.872007 1.2022,-0.88266 1.81509,-0.04803 3.64228,-0.05853 5.44873,0.102132 1.91343,0.170174 3.30074,1.732828 3.44271,3.644595 0.0477,0.649471 0.0243,1.304962 0.0192,1.957586 -0.0212,2.725362 -1.56681,4.36107 -4.29076,4.468075 -1.44437,0.05677 -2.89339,-0.0172 -4.33895,0.02098 -1.06783,0.02829 -1.52605,-0.41804 -1.5122,-1.49539 0.0327,-2.564222 0.0127,-5.129135 0.0285,-7.81538 m 3.21387,0.973558 c -0.40738,0.02207 -0.81479,0.04427 -1.24856,0.06782 v 6.347891 c 1.44046,0 2.79009,0.04425 4.13543,-0.01262 1.3133,-0.05551 2.03405,-0.850298 2.18847,-2.117294 0.0785,-0.644099 0.0551,-1.307031 0.016,-1.957674 -0.0854,-1.402695 -0.90498,-2.235668 -2.30228,-2.317002 -0.83779,-0.04873 -1.68065,-0.01042 -2.78922,-0.0112 z"
   id="path96"
   sodipodi:nodetypes="csssssssccccssssc"
   style="stroke-width:0.280645" />
<path
   fill="#203f87"
   opacity="1"
   stroke="none"
   d="m 99.334275,28.956851 c -1.90839,-1.367446 -1.99899,-5.341182 -0.91026,-7.298299 1.02466,-1.841941 2.742205,-2.174365 4.670925,-2.179293 2.07872,-0.0052 4.20094,0.02362 5.20403,2.187384 0.9283,2.002553 0.91858,4.202511 -0.0583,6.222968 -0.3339,0.690063 -1.0973,1.444987 -1.80639,1.631516 -2.35693,0.620011 -4.99283,0.775346 -7.099345,-0.564276 m 3.894345,-7.916354 c -2.54297,-0.0291 -3.367305,1.499089 -3.350055,3.704882 0.0171,2.205791 0.876345,3.320206 3.548985,3.287895 2.67265,-0.03228 3.45511,-1.733172 3.46532,-3.399157 0.0101,-1.665992 -1.12129,-3.564533 -3.66425,-3.59362 z"
   id="path98"
   sodipodi:nodetypes="csssssczzzzz"
   style="stroke-width:0.280645" />
<path
   fill="#1461a4"
   opacity="1"
   stroke="none"
   d="m 114.36631,17.049812 c -0.32868,-0.01152 -2.07217,0.0058 -3.07062,0.0022 0,-2.957996 1e-5,-5.697468 1e-5,-8.4369491 0,-2.749731 -1e-5,-5.49946 -1e-5,-8.33983499 h 3.04538 c 0,5.37133699 0.0491,11.25319909 0.0249,16.77459709 z"
   id="path100"
   sodipodi:nodetypes="ccsccc"
   style="stroke-width:0.280645" />
<path
   fill="#246caa"
   opacity="1"
   stroke="none"
   d="m 131.64927,7.3408789 c 0.0312,0.94656 0.0312,1.775242 0.0312,2.7027461 -3.23852,0 -6.37269,0 -9.59668,0 0,-0.9830521 0,-1.9320681 0,-2.8206271 3.19513,0 6.3643,0 9.56505,0.117881 z"
   id="path102"
   style="stroke-width:0.280645" />
<path
   fill="#24438a"
   opacity="1"
   stroke="none"
   d="m 146.71592,19.902841 c -1.58444,1.695774 -3.13506,3.304352 -4.72227,4.950835 1.50792,1.524167 3.10609,3.139598 4.81041,4.862256 -1.32417,0.240822 -2.44979,0.352919 -3.37807,-0.828232 -0.60104,-0.764751 -1.32675,-1.448858 -2.07489,-2.075829 -0.66527,-0.557582 -1.43838,-0.986751 -2.36059,-1.604345 0,-0.206532 0,-0.751201 0,-1.332547 2.22574,-0.06374 3.02305,-2.008554 4.31306,-3.228902 1.0768,-1.018696 2.11742,-1.293997 3.41235,-0.743236 z"
   id="path104"
   style="stroke-width:0.280645" />
<path
   fill="#24438a"
   opacity="1"
   stroke="none"
   d="m 148.08792,19.673355 c 0.47316,0.0019 1.6636,0.0085 1.87506,0.0079 v 10.100767 h -1.87881 c 0,-2.91138 -0.003,-9.895978 0.004,-10.108662 z"
   id="path106"
   sodipodi:nodetypes="ccccc"
   style="stroke-width:0.280645" />
<path
   fill="#24438a"
   opacity="1"
   stroke="none"
   d="m 138.25841,20.708714 c 2e-5,3.068318 2e-5,6.0061 2e-5,9.040669 h -1.86149 V 19.702654 c 0.55681,5.57e-4 1.35219,8.9e-5 1.85536,0.0088 -8.5e-4,0.204438 0.003,0.734004 0.006,0.997238 z"
   id="path108"
   sodipodi:nodetypes="cccccc"
   style="stroke-width:0.280645" />










</svg>
