<?xml version="1.0" encoding="UTF-8" standalone="no"?>
<svg
   version="1.1"
   id="Layer_1"
   x="0px"
   y="0px"
   width="522.17065"
   viewBox="0 0 522.17066 117.03184"
   enable-background="new 0 0 624 500"
   xml:space="preserve"
   sodipodi:docname="Logo_MD.svg"
   inkscape:version="1.1.1 (3bf5ae0d25, 2021-09-20)"
   height="117.03185"
   xmlns:inkscape="http://www.inkscape.org/namespaces/inkscape"
   xmlns:sodipodi="http://sodipodi.sourceforge.net/DTD/sodipodi-0.dtd"
   xmlns="http://www.w3.org/2000/svg"
   xmlns:svg="http://www.w3.org/2000/svg"><defs
   id="defs133" /><sodipodi:namedview
   id="namedview131"
   pagecolor="#ffffff"
   bordercolor="#666666"
   borderopacity="1.0"
   inkscape:pageshadow="2"
   inkscape:pageopacity="0.0"
   inkscape:pagecheckerboard="0"
   showgrid="false"
   inkscape:snap-midpoints="false"
   inkscape:snap-smooth-nodes="false"
   inkscape:object-paths="true"
   inkscape:zoom="4.0000001"
   inkscape:cx="75.374998"
   inkscape:cy="51.124999"
   inkscape:window-width="1920"
   inkscape:window-height="991"
   inkscape:window-x="-9"
   inkscape:window-y="-9"
   inkscape:window-maximized="1"
   inkscape:current-layer="layer2"
   showguides="true"
   inkscape:guide-bbox="true"><sodipodi:guide
     position="77.499997,59.531846"
     orientation="0,-1"
     id="guide850" /></sodipodi:namedview>





























<g
   inkscape:groupmode="layer"
   id="layer2"
   inkscape:label="logo"
   style="display:inline"
   transform="translate(-12.130017)"><text
     xml:space="preserve"
     style="font-style:normal;font-variant:normal;font-weight:normal;font-stretch:normal;font-size:85.3333px;line-height:0;font-family:monospace;-inkscape-font-specification:'monospace, Normal';font-variant-ligatures:normal;font-variant-caps:normal;font-variant-numeric:normal;font-variant-east-asian:normal;letter-spacing:0px;word-spacing:0px;fill:#2ca9e5;fill-opacity:1;stroke-width:1.45337"
     x="51.562733"
     y="71.869186"
     id="text5347"
     transform="scale(0.78078878,1.2807561)"><tspan
       sodipodi:role="line"
       id="tspan5345"
       x="51.562733"
       y="71.869186"
       style="font-style:normal;font-variant:normal;font-weight:normal;font-stretch:normal;font-size:85.3333px;font-family:monospace;-inkscape-font-specification:'monospace, Normal';font-variant-ligatures:normal;font-variant-caps:normal;font-variant-numeric:normal;font-variant-east-asian:normal;fill:#2ca9e5;fill-opacity:1;stroke-width:1.45337" /></text><text
     xml:space="preserve"
     style="font-size:40px;line-height:1.25;font-family:sans-serif;letter-spacing:0px"
     x="28.999998"
     y="58.499996"
     id="text72505"><tspan
       sodipodi:role="line"
       id="tspan72503"
       x="28.999998"
       y="58.499996"
       style="font-style:normal;font-variant:normal;font-weight:normal;font-stretch:normal;font-size:40px;font-family:'Segoe UI Variable';-inkscape-font-specification:'Segoe UI Variable';font-variant-ligatures:normal;font-variant-caps:normal;font-variant-numeric:normal;font-variant-east-asian:normal" /></text><rect
     style="fill:none;fill-opacity:1;stroke:#2ca9e5;stroke-width:5.00032;stroke-linecap:butt;stroke-linejoin:round;stroke-miterlimit:38.7;stroke-dasharray:none;stroke-opacity:1"
     id="rect117399"
     width="150.99968"
     height="83.245323"
     x="14.630178"
     y="16.630177" /><text
     xml:space="preserve"
     style="font-size:53.3333px;line-height:1.25;font-family:sans-serif;letter-spacing:0px;fill:none;stroke:#2ca9e5;stroke-width:1;stroke-miterlimit:38.7;stroke-dasharray:none;stroke-opacity:1"
     x="42.077934"
     y="73.499992"
     id="text119692"><tspan
       sodipodi:role="line"
       id="tspan119690"
       x="42.077934"
       y="73.499992"
       style="font-style:normal;font-variant:normal;font-weight:normal;font-stretch:normal;font-size:53.3333px;font-family:monospace;-inkscape-font-specification:monospace;fill:none;stroke:#2ca9e5;stroke-width:1;stroke-miterlimit:38.7;stroke-dasharray:none;stroke-opacity:1">&lt;/&gt;</tspan></text><circle
     style="fill:#feffff;fill-opacity:1;stroke:none;stroke-width:0.31401;stroke-linecap:butt;stroke-linejoin:round;stroke-miterlimit:38.7;stroke-dasharray:none;stroke-opacity:1"
     id="path125360"
     cx="20.03125"
     cy="99.831253"
     r="2.03125" /><circle
     style="display:inline;fill:#feffff;fill-opacity:1;stroke:none;stroke-width:0.31401;stroke-linecap:butt;stroke-linejoin:round;stroke-miterlimit:38.7;stroke-dasharray:none;stroke-opacity:1"
     id="path125360-9"
     cx="26.03125"
     cy="99.831253"
     r="2.03125" /><circle
     style="display:inline;fill:#feffff;fill-opacity:1;stroke:none;stroke-width:0.31401;stroke-linecap:butt;stroke-linejoin:round;stroke-miterlimit:38.7;stroke-dasharray:none;stroke-opacity:1"
     id="path125360-97"
     cx="32.03125"
     cy="99.831253"
     r="2.03125" /></g><g
   inkscape:groupmode="layer"
   id="layer1"
   inkscape:label="Logotyp"
   style="display:inline"
   transform="translate(-12.130017)"><g
     id="g52050"><path
       fill="#246caa"
       opacity="1"
       stroke="none"
       d="m 468.93414,26.165992 c 0.11254,3.373948 0.11254,6.327718 0.11254,9.633728 -11.53558,0 -22.69946,0 -34.18331,0 0,-3.50401 0,-6.88671 0,-10.053902 11.38101,0 22.66961,0 34.07077,0.420174 z"
       id="path102"
       style="display:inline" /><path
       fill="#1360a4"
       opacity="1"
       stroke="none"
       d="m 190.46261,60.09222 -10.94772,0.0556 c 0.005,-0.28603 -0.008,-36.159645 -0.008,-52.308365 0,-0.499443 -0.10949,-1.159072 0.12136,-1.505431 0.72566,-1.589173 2.55096,-5.98447299 4.60602,-6.02975499 2.05506,-0.04528 4.9059,1.64255699 6.07893,3.44153599 1.86799,2.864784 15.70703,26.996235 23.78545,41.048285 0.9219,-1.28149 16.41505,-27.735159 23.45167,-39.981642 1.6113,-2.804283 3.01254,-4.75998199 7.2023,-4.81198899303 4.19897,-0.052119997 4.55701,4.34484899303 4.5561,7.85947499303 -0.004,17.282424 -0.002,34.564846 -0.002,52.178276 h -11.044 V 26.109748 c -1.61312,2.118832 -12.15838,20.167132 -16.82049,28.218232 -1.6904,2.91916 -3.65999,6.28292 -7.15227,6.25965 -3.49229,-0.0233 -5.13364,-3.5053 -6.71645,-6.09258 -5.59603,-9.14733 -10.75663,-18.56106 -17.11114,-27.65195 z"
       id="path74"
       sodipodi:nodetypes="ccsczscssscccszscc"
       style="display:inline" /><path
       fill="#1160a3"
       opacity="1"
       stroke="none"
       d="m 287.10616,45.69409 c -5.25756,0.002 -10.07348,0.002 -15.37417,0.002 v 14.30294 h -10.25186 c 0,-12.36873 -1.23267,-24.92098 0.33404,-37.113515 1.6897,-13.149444 13.09763,-21.478721 27.07938,-22.11589799 8.31219,-0.378807 16.65503,-0.05969 24.98364,-0.115448 4.14227,-0.02772 6.33963,2.18175499 6.36554,6.07005299 0.1174,17.634728 0.0514,35.270688 0.0514,53.280518 h -10.7178 V 45.69237 c -7.78138,0 -14.90494,0 -22.47013,0.002 m 10.82773,-11.02778 h 11.2092 V 11.526656 c -6.58395,0 -12.87768,-0.130653 -19.16418,0.02731 -12.90903,0.324363 -17.91752,10.429191 -17.8404,23.112394 8.22611,0 16.51364,0 25.79538,-5e-5 z"
       id="path78"
       sodipodi:nodetypes="ccccssscccccsccscs"
       style="display:inline" /><path
       fill="#1461a4"
       opacity="1"
       stroke="none"
       d="m 356.46157,0.65900301 c 9.98779,1.6e-5 19.47812,1.6e-5 29.4111,1.6e-5 0,3.55173499 0,6.91080399 0,10.87047499 -11.20111,0 -22.47201,-2.36e-4 -33.74292,7.7e-5 -9.32275,2.59e-4 -9.47958,0.165321 -9.46408,9.481102 0.0122,7.329547 0.0937,14.660697 -0.0305,21.988157 -0.078,4.60111 1.77639,6.62975 6.54593,6.5598 12.14312,-0.17806 24.29061,-0.0592 36.78146,-0.0592 0,3.50933 0,6.76006 0,10.47132 -1.07566,0.12129 -2.32743,0.38155 -3.57996,0.38509 -11.32834,0.0318 -22.65719,0.0745 -33.98517,0.002 -10.4851,-0.0668 -16.46319,-6.03275 -16.51818,-16.39751 -0.046,-8.66236 -0.0409,-17.32536 0.004,-25.987748 0.0605,-11.748603 5.73447,-17.30805199 17.58389,-17.31458199 2.16574,-0.0012 4.33148,3.58e-4 6.99466,6.63e-4 z"
       id="path80"
       style="display:inline" /><path
       fill="#1260a3"
       opacity="1"
       stroke="none"
       d="m 419.59466,18.523505 c 0.002,-4.327766 -0.0622,-8.159019 0.0248,-11.986831 0.0802,-3.527207 1.94119,-5.78591199 5.50113,-5.80910499 15.9512,-0.103913 31.90347,-0.04523 48.17987,-0.04523 0,3.62333699 0,6.88451399 0,10.55864699 -13.91013,0 -27.99332,0 -42.83972,0 0,4.793671 -3e-5,9.207878 3e-5,13.622093 1.2e-4,6.160918 0.15579,12.327068 -0.0509,18.481038 -0.15344,4.56806 1.84861,6.25652 6.26362,6.20121 10.48855,-0.13141 20.97992,-0.042 31.47012,-0.0418 1.63476,2e-5 3.26953,1e-5 5.19244,1e-5 0,3.59712 0,6.85083 0,10.86613 -1.54989,0 -3.13165,0 -4.71341,0 -10.82324,-1e-5 -21.64666,0.0418 -32.46963,-0.012 -10.47483,-0.0521 -16.47833,-5.99613 -16.54703,-16.35955 -0.0551,-8.32518 -0.0113,-16.651 -0.0113,-25.474575 z"
       id="path82"
       style="display:inline" /><path
       fill="#105fa3"
       opacity="1"
       stroke="none"
       d="m 530.95895,54.94523 c -2.63564,2.46469 -7.18775,4.97641 -10.758,5.13354 -13.26697,0.58391 -26.57501,0.23285 -40.23358,0.23285 V 49.50677 c 3.37488,0 6.95062,0 10.52637,0 8.65539,-2e-5 17.31079,0.017 25.96612,-0.006 6.23908,-0.0164 6.96375,-0.71475 6.97443,-6.84551 0.0241,-13.78946 0.008,-27.579006 0.008,-41.67641799 h 10.82556 c 0,15.56712299 0.13324,30.99606799 -0.13727,46.41792799 -0.0427,2.43825 -0.53557,5.08353 -3.1712,7.54823 z"
       id="path84"
       sodipodi:nodetypes="zsccsssccsz"
       style="display:inline" /><path
       fill="#224088"
       opacity="1"
       stroke="none"
       d="m 277.49807,106.3796 c -13.55981,0.021 -12.23941,1.03076 -12.25946,-11.83214 -0.0101,-6.49466 0.10422,-12.99164 -0.0394,-19.48311 -0.0811,-3.66772 1.59122,-5.14793 5.0817,-5.12147 5.16208,0.0391 10.32477,0.002 15.48718,0.006 12.09201,0.01 14.57254,7.04144 10.34128,17.52115 1.68646,4.07423 4.64667,5.38907 5.19519,8.93574 0.95853,6.19803 -2.53632,9.77993 -8.82816,9.9473 -4.82598,0.12839 -9.65808,0.0261 -14.97836,0.0264 m 13.70499,-14.62097 -16.6391,-0.21875 c 0.13443,-2.89903 0.005,-4.60623 0.1131,-6.93706 2.28054,0 11.72145,-0.54888 14.94202,-0.57914 1.16876,-0.71666 3.2371,-1.0812 3.35162,-3.6314 0.11451,-2.55021 -3.47796,-3.55303 -3.74906,-3.56479 -5.59024,-0.24233 -11.19623,-0.12272 -16.83285,-0.12272 v 22.62992 l 18.15178,0.16161 c 2.70226,0.006 4.08017,-1.45188 4.21475,-3.59935 0.13457,-2.14747 -0.70358,-4.07936 -3.55223,-4.13819 z"
       id="path86"
       sodipodi:nodetypes="csssscssccccczcccczcc"
       style="display:inline" /><path
       fill="#203f87"
       opacity="1"
       stroke="none"
       d="m 257.65652,79.70139 c 3e-5,4.80432 0.0305,9.13567 -0.007,13.46642 -0.0541,6.26492 2.7591,11.43254 -4.15462,17.32355 l 7.97588,1.40625 c 1.95053,4.44238 -1.24799,5.26811 -4.25028,5.11795 -2.76171,-0.13814 -6.13458,-0.75536 -7.93475,-2.50365 -1.0267,-0.99713 0.47806,-6.05107 0.86206,-8.5275 0.47064,-3.03514 1.00107,-4.70054 1.51154,-8.1364 h -23.24057 v 8.1503 h -6.17987 c -0.004,-0.21659 -0.71139,-15.16485 0.20227,-22.58716 0.91366,-7.42231 8.42999,-12.40472 14.46014,-12.99455 6.03015,-0.58983 9.30603,-0.41379 13.9628,-0.43909 6.43112,-0.0349 6.7731,0.36867 6.79233,6.75194 0.002,0.8329 2.4e-4,1.66579 3e-5,2.97194 m -6.37497,6.20122 v -9.1897 c -2.21092,0 -13.56784,-1.2581 -18.26249,1.84541 -5.36853,3.549 -3.98299,11.55062 -3.96487,12.11661 6.241,0 12.54972,-0.15346 18.84552,0.065 1.42354,0.0494 2.463,0.0311 3.25065,-0.0121 0.0398,-1.17168 0.11175,-2.90692 0.13119,-4.82521 z"
       id="path88"
       sodipodi:nodetypes="csccssscccczzsscccscsccc"
       style="display:inline" /><path
       fill="#1e3d86"
       opacity="1"
       stroke="none"
       d="m 338.87112,101.08742 c 1.84817,1.62951 3.42782,3.0281 5.40017,4.7744 -6.16519,1.41652 -10.59884,0.15796 -14.86447,-3.90683 -3.54178,-3.37507 -6.51996,-8.37782 -12.90881,-7.49167 v -6.80004 c 3.87656,0 7.50723,-0.0399 11.13751,-4e-4 8.07245,0.0877 8.39713,-3.24506 8.35901,-10.64498 h -22.28296 l -0.0312,29.38506 h -6.74655 c 0,-5.10896 0.12046,-24.1353 0.03,-28.02597 -0.0238,-1.02169 -0.0282,-7.42787 -0.0755,-8.57504 1.19168,0.0204 5.3853,0.0625 6.77909,0.0548 1.75572,-0.01 15.83462,0.008 18.56144,0.0212 7.13633,0.0357 10.71147,5.68486 10.85633,10.61929 0.21481,7.31718 -1.04343,10.03493 -6.3454,12.61751 -1.33307,0.64933 -2.80124,1.02119 -4.965,1.78964 2.49103,2.17154 4.65943,4.06183 7.09641,6.18304 z"
       id="path90"
       sodipodi:nodetypes="ccsccsccccscsssscc"
       style="display:inline" /><path
       fill="#213f88"
       opacity="1"
       stroke="none"
       d="m 414.32232,88.32912 c -3.30072,5.43521 -6.33069,10.60318 -9.63223,15.59137 -0.78861,1.1915 -2.57114,2.562 -3.73563,2.43007 -1.14102,-0.12929 -2.74261,-1.93764 -2.99805,-3.23437 -2.11721,-10.74854 -4.01158,-22.38682 -5.93825,-33.14181 4.29197,0.0697 4.51075,0.0839 6.33472,0.0758 0.22572,0.68454 3.43206,16.23744 4.75783,23.38719 3.50272,-5.49824 6.34573,-10.04093 9.27115,-14.52993 2.7933,-4.2862 4.71613,-4.05861 7.51376,0.26713 2.86661,4.43244 5.63654,8.9274 9.12998,14.47713 1.62121,-8.4964 3.02597,-15.85854 4.47171,-23.43529 h 6.56891 c -1.98264,11.30788 -3.8526,22.38463 -5.96726,33.41448 -0.21799,1.1371 -1.93713,2.82809 -2.88595,2.78085 -1.33359,-0.0664 -3.0383,-1.23294 -3.81757,-2.42868 -3.80292,-5.83513 -7.35086,-11.83644 -11.18771,-18.10353 -0.75302,0.92976 -1.23359,1.52313 -1.88541,2.44961 z"
       id="path92"
       sodipodi:nodetypes="cssscccsscccsscccc"
       style="display:inline" /><path
       fill="#224189"
       opacity="1"
       stroke="none"
       d="m 475.35598,104.67721 c -5.14791,2.03771 -10.15539,1.40103 -15.07519,1.64714 -5.11646,0.25595 -10.25568,0.0571 -15.61255,0.0571 v -6.73032 c 7.41803,0 14.70602,0.0405 21.99322,-0.0192 3.07205,-0.0252 6.92859,0.7339 6.84821,-4.19178 -0.0743,-4.55452 -3.66416,-3.87146 -6.61041,-3.89637 -3.99933,-0.0338 -8.00409,0.11148 -11.99747,-0.0477 -6.3945,-0.25498 -10.46912,-4.25636 -10.65793,-10.22179 -0.19724,-6.23161 3.23486,-10.57054 9.73343,-10.97081 7.43222,-0.45778 14.91431,-0.10605 22.70914,-0.10605 v 6.53225 c -6.39182,0 -12.83005,0.031 -19.26774,-0.0134 -3.10855,-0.0214 -6.55441,-0.20576 -6.49844,4.11219 0.0577,4.45178 3.69757,3.8114 6.67072,3.82538 3.99847,0.0188 8.01159,-0.14799 11.99154,0.13844 4.81308,0.34637 8.77011,2.38084 10.20682,7.38476 1.41522,4.92931 0.71456,10.4625 -4.43335,12.50022 z"
       id="path94"
       sodipodi:nodetypes="zsccssssssccsssssz"
       style="display:inline" /><path
       fill="#24438a"
       opacity="1"
       stroke="none"
       d="m 179.6437,73.23279 c 0.0247,-2.39866 2.84915,-3.10819 4.28204,-3.14616 6.46534,-0.17129 12.97394,-0.20859 19.40837,0.36404 6.81582,0.60656 11.75725,6.17652 12.26307,12.99088 0.17184,2.31499 0.0876,4.65143 0.0693,6.97766 -0.0765,9.71434 -5.58078,15.54469 -15.28369,15.9261 -5.14459,0.20223 -10.30618,-0.0614 -15.45508,0.075 -3.80369,0.10077 -5.43605,-1.49007 -5.38661,-5.3302 0.11771,-9.13997 0.0457,-18.28241 0.10263,-27.85732 m 11.44763,3.47017 c -1.45103,0.0789 -2.90207,0.15778 -4.44726,0.24179 v 22.62656 c 5.1309,0 9.93829,0.15768 14.73043,-0.0449 4.67783,-0.19772 7.24508,-3.03082 7.79526,-7.54692 0.2797,-2.29585 0.19812,-4.65882 0.0576,-6.97798 -0.30297,-4.99981 -3.22367,-7.96887 -8.20083,-8.25877 -2.98421,-0.17381 -5.98651,-0.037 -9.93517,-0.0398 z"
       id="path96"
       sodipodi:nodetypes="csssssssccccssssc"
       style="display:inline" /><path
       fill="#203f87"
       opacity="1"
       stroke="none"
       d="m 353.82815,103.21444 c -6.79761,-4.87415 -7.12033,-19.03823 -3.24225,-26.01422 3.64984,-6.56546 9.7677,-7.75034 16.63779,-7.76792 7.40439,-0.0189 14.96374,0.084 18.53671,7.79677 3.30667,7.13794 3.27194,14.97952 -0.21005,22.18128 -1.18924,2.45967 -3.90857,5.15054 -6.4343,5.81541 -8.39541,2.20998 -17.78439,2.76366 -25.2879,-2.01132 M 367.6998,74.99721 c -9.05805,-0.1037 -11.99429,5.3434 -11.93281,13.20577 0.0615,7.86237 3.12148,11.83461 12.64142,11.71945 9.51994,-0.11516 12.30708,-6.17776 12.34338,-12.11604 0.0363,-5.93829 -3.99394,-12.70549 -13.05199,-12.80918 z"
       id="path98"
       sodipodi:nodetypes="csssssczzzzz"
       style="display:inline" /><path
       fill="#1461a4"
       opacity="1"
       stroke="none"
       d="m 407.37227,60.77273 c -1.17078,-0.0409 -7.38114,0.0208 -10.93743,0.008 0,-10.54354 3e-5,-20.30818 3e-5,-30.07284 0,-9.801202 -3e-5,-19.602395 -3e-5,-29.72671599 h 10.84756 c 0,19.14572899 0.17678,40.11116599 0.0899,59.79176599 z"
       id="path100"
       sodipodi:nodetypes="ccsccc"
       style="display:inline" /><path
       fill="#24438a"
       opacity="1"
       stroke="none"
       d="m 522.6014,70.94213 c -5.64367,6.04445 -11.16711,11.77811 -16.82068,17.64687 5.37116,5.43277 11.06391,11.19085 17.13459,17.33113 -4.71668,0.85839 -8.72614,1.25795 -12.03266,-2.95217 -2.14087,-2.7259 -4.72583,-5.16435 -7.39062,-7.39914 -2.36981,-1.98745 -5.12354,-3.51719 -8.40857,-5.71855 0,-0.73617 0,-2.6776 0,-4.74977 7.92822,-0.22731 10.76813,-7.15933 15.3631,-11.50917 3.83569,-3.63106 7.54223,-4.61234 12.15484,-2.6492 z"
       id="path104"
       style="display:inline" /><path
       fill="#24438a"
       opacity="1"
       stroke="none"
       d="m 527.48833,70.12415 c 1.68551,0.007 5.92595,0.0306 6.67899,0.0282 v 36.00336 h -6.6922 c 0,-10.37739 -0.0106,-35.27344 0.0132,-36.03154 z"
       id="path106"
       sodipodi:nodetypes="ccccc"
       style="display:inline" /><path
       fill="#24438a"
       opacity="1"
       stroke="none"
       d="m 492.47579,73.8146 c 6e-5,10.93679 6e-5,21.40828 6e-5,32.22476 h -6.63061 V 70.22857 c 1.98336,0.002 4.81651,3.2e-4 6.60874,0.0315 -0.003,0.72871 0.0103,2.61631 0.0218,3.55458 z"
       id="path108"
       sodipodi:nodetypes="cccccc"
       style="display:inline" /></g></g></svg>
